<svg preserveAspectRatio="xMinYMin"  xmlns="http://www.w3.org/2000/svg" viewBox="0 0 600 600" width="600" height="600" version="1.1" id="svg10" >
  <rect width="64" height="270" x="-360" y="165" transform="matrix(0,-1,1,0,0,0)" style="fill:inherit" id="rect2"/>
  <path style="fill:inherit" d="M 539.61914 -0.044921875 C 522.17893 -0.044921875 506.77988 3.3637137 496.39844 13.771484 C 486.51399 23.605002 480.61687 36.242627 478.21094 52.908203 L 508.72461 52.908203 C 509.38906 45.257217 512.25445 38.761718 517.32031 33.746094 C 522.71839 28.475413 529.44609 25.839844 537.50195 25.839844 C 546.72057 25.839844 554.11132 28.73097 559.67578 34.511719 C 565.32283 40.207428 568.14648 47.645014 568.14648 56.826172 C 568.14648 76.20863 552.99705 82.48259 539.24023 82.638672 L 532.06055 82.638672 L 532.39258 110.1582 L 539.24023 110.1582 C 549.3661 110.1582 554.53533 112.41312 562.66602 119.20703 C 568.56238 125.58271 570.79818 133.51561 570.51953 144.13867 C 570.34494 150.80592 569.19004 156.81052 566.23633 162.18555 C 571.05937 171.43557 575.42482 180.95692 579.2793 190.73242 C 580.31387 189.85396 581.34047 188.94729 582.35156 187.97656 C 594.47661 176.41495 600.04297 162.81968 600.04297 145.5625 C 600.04297 133.74607 598.87375 124.11164 593.55859 115.35547 C 588.49273 106.85446 583.6272 100.20989 574.99023 96.724609 C 589.85899 86.649847 597.21094 73.664947 597.21094 53.857422 C 597.21094 37.960406 591.23351 25.160199 580.60352 15.128906 C 569.9731 5.0126363 556.31209 -0.044921875 539.61914 -0.044921875 z M 579.2793 190.73242 C 567.99215 200.31642 555.20357 204.49802 538.53711 204.82812 C 530.06755 204.99581 522.27901 204.2532 515.18359 202.4375 C 528.56444 232.12549 536 265.14164 536 300 C 536 431 431 536 300 536 C 169 536 64 431 64 300 C 64 169 169 64 300 64 C 372.56974 64 437.14822 96.233374 480.33008 147.24805 L 502.04297 147.24805 C 503.53794 167.65077 515.66091 178.83008 537.41992 178.83008 C 547.21941 178.83008 555.02601 175.42968 561.50391 168.62891 C 563.44435 166.5923 564.99584 164.44293 566.23633 162.18555 C 516.1055 66.040584 415.39667 0 300 0 C 135 0 0 135 0 300 C 0 465 135 600 300 600 C 465 600 600 465 600 300 C 600 261.49888 592.64615 224.63268 579.2793 190.73242 z M 480.33008 147.24805 L 472.64258 147.24805 C 472.64258 163.82511 479.69718 179.30135 491.49023 189.92773 C 498.2357 196.07079 506.14685 200.12502 515.18359 202.4375 C 506.1352 182.3619 494.35629 163.81849 480.33008 147.24805 z " id="path4"/>
  <rect width="64" height="500" x="-328.06311" y="-404.19559" transform="matrix(-0.90630779,-0.42261826,0.42261826,-0.90630779,0,0)" style="fill:inherit" id="rect6"/>
  <rect width="64" height="500" x="-279.65326" y="-657.7666" transform="matrix(-0.90630779,0.42261826,-0.42261826,-0.90630779,0,0)" style="fill:inherit" id="rect8"/>
</svg>