<svg xmlns="http://www.w3.org/2000/svg" version="1.1" viewBox="0 0 60 90" width="60" height="90" class="feminist">
<g transform="translate(30,30) scale(.164) translate(-95,-97.5)">
<polygon fill="inherit" stroke="none" stroke-width="0" points="7,54 8,49 12,43 17,40 22,37 26,35 34,35 37,38 39,43 40,47 41,54 42,62 43,69 44,78 44,91 43,100 42,105 41,108 38,110 33,110 29,109 25,107 21,102 17,97 14,91 11,83 9,76 8,71 7,63 6,58"/>
<polygon fill="inherit" stroke="none" stroke-width="0" points="48,28 50,24 53,20 56,16 59,14 64,11 67,9 70,8 75,6 80,5 83,6 85,8 87,11 88,15 89,23 88,31 87,39 86,48 84,57 81,69 78,79 76,83 71,89 66,91 62,89 58,86 55,82 53,77 51,71 49,63 48,56 47,45 46,35"/>
<polygon fill="inherit" stroke="none" stroke-width="0" points="109,2 115,4 121,6 127,9 131,12 134,16 136,20 137,27 136,36 135,44 133,55 130,64 128,71 122,80 117,84 113,85 110,85 106,84 101,81 98,77 95,71 94,66 93,60 93,51 94,38 95,28 96,20 98,13 100,7 102,4 105,3"/>
<polygon fill="inherit" stroke="none" stroke-width="0" points="150,20 152,19 155,20 158,21 161,24 164,27 167,31 171,37 173,44 173,53 172,58 171,63 168,70 162,84 160,87 156,90 151,90 147,89 144,86 142,84 139,78 138,73 138,66 139,61 140,56 141,50 142,44 143,39 144,35 145,31 146,27 148,23"/>
<polygon fill="inherit" stroke="none" stroke-width="0" points="81,105 81,99 82,94 83,91 85,88 88,85 91,84 94,84 97,87 99,90 103,93 106,95 110,96 116,97 129,97 138,96 144,95 151,94 165,94 170,95 175,97 179,100 182,103 184,107 186,112 187,116 187,124 186,129 185,134 182,141 178,149 169,161 163,167 157,172 151,177 147,180 142,183 134,188 127,192 120,195 64,195 56,194 49,192 43,190 37,188 30,184 26,181 23,178 20,174 17,170 16,165 15,160 14,152 14,146 15,142 16,138 18,133 21,128 25,124 29,121 33,119 37,118 42,117 47,116 55,116 63,117 68,118 76,121 81,123 87,126 92,129 97,131 103,133 108,134 114,135 120,135 123,134 127,132 129,130 131,128 131,125 128,124 125,124 122,125 119,126 115,127 110,128 105,127 100,126 94,124 90,121 87,118 84,114 82,110"/>
</g>
<circle cx="30" cy="30" r="25" fill="none" stroke="inherit" stroke-width="7"/>
<line x1="30" y1="40" x2="30" y2="90" stroke="inherit" stroke-width="7"/>
<line x1="15" y1="75" x2="45" y2="75" stroke="inherit" stroke-width="7"/>
</svg>